<svg width="262" height="389" viewBox="0 0 262 389" fill="none" xmlns="http://www.w3.org/2000/svg">
<path d="M155.266 148.624L146.797 180.299C133.81 188.43 120.824 196.504 107.837 204.522C89.995 216.831 81.0739 225.865 81.0739 231.624C81.0739 232.866 81.7514 233.488 83.1065 233.488C86.4943 233.488 91.576 229.874 98.3516 222.647C102.982 217.678 107.555 212.653 112.072 207.571C112.863 208.136 113.258 209.096 113.258 210.451C113.258 212.032 112.411 216.436 110.717 223.663C108.571 232.923 107.386 237.892 107.16 238.569C105.692 243.086 103.264 247.547 99.8761 251.951C95.0202 258.275 84.2923 267.422 67.6921 279.392C48.7205 293.056 35.9599 303.163 29.4102 309.713C17.1012 321.909 10.9467 333.484 10.9467 344.438C10.9467 355.504 20.0937 364.143 38.3878 370.354C53.407 375.549 70.3459 378.146 89.2045 378.146C120.146 378.146 140.812 377.638 151.201 376.621L151.54 377.468C151.54 380.743 142.223 383.566 123.591 385.938C109.136 387.745 97.1094 388.648 87.5107 388.648C29.5795 388.648 0.613989 373.968 0.613989 344.607C0.613989 331.169 6.09091 316.037 17.0447 299.211C26.8693 284.191 37.9925 272.165 50.4144 263.131L71.2493 247.886C70.3459 245.175 69.8942 242.183 69.8942 238.908C69.8942 230.1 73.3949 219.767 80.3963 207.91C87.2848 196.504 94.5685 188.317 102.248 183.348C125.736 168.329 143.409 156.754 155.266 148.624ZM221.667 148.285L213.028 180.469C210.205 182.388 205.123 185.437 197.783 189.616C184.909 197.069 174.633 207.063 166.954 219.598C159.049 232.471 155.097 246.192 155.097 260.759C153.177 264.373 150.354 268.438 146.627 272.955C139.287 262.227 135.617 248.224 135.617 230.947C135.617 217.396 141.376 190.632 152.895 150.656C158.767 143.768 164.978 136.653 171.528 129.313C171.866 131.12 172.036 133.04 172.036 135.072C172.036 141.058 169.947 148.172 165.768 156.415C162.042 163.982 157.807 170.136 153.064 174.879C148.773 193.286 146.627 206.216 146.627 213.669C146.627 221.348 147.7 226.43 149.846 228.914C152.556 218.751 157.92 207.515 165.938 195.206C173.165 184.139 181.578 175.161 191.177 168.273L221.667 148.285ZM247.922 12.0959L240.977 24.2919C237.702 29.4865 234.766 32.9872 232.169 34.794C227.652 32.0838 222.683 28.6395 217.263 24.4613C217.715 23.4449 222.796 15.4836 232.508 0.577394C242.784 4.30396 247.922 8.14345 247.922 12.0959ZM261.304 90.3537C261.304 94.9837 259.045 104.469 254.528 118.811C245.946 146.139 231.379 167.2 210.826 181.993L219.465 150.148C225.111 146.534 230.757 141.34 236.404 134.564C243.066 126.659 246.398 119.997 246.398 114.576C246.398 111.527 245.325 109.551 243.179 108.648C235.613 114.859 229.402 117.964 224.547 117.964C221.046 117.964 218.053 116.948 215.569 114.915C212.746 112.657 211.334 109.833 211.334 106.446C211.334 100.122 214.327 90.9748 220.312 79.0046C226.749 66.131 232.621 59.6942 237.928 59.6942C244.139 59.6942 249.673 63.3643 254.528 70.7045C259.045 77.2542 261.304 83.804 261.304 90.3537Z" fill="black"/>
</svg>
