<svg width="705" height="536" viewBox="0 0 705 536" fill="none" xmlns="http://www.w3.org/2000/svg">
<path d="M154.527 334.463L146.179 392.664C131.693 405.17 116.378 412.384 100.234 414.306C77.9855 416.954 61.2505 406.366 50.0288 382.542C43.8366 369.103 38.601 347.761 34.3219 318.519L21.344 229.611C11.6048 162.881 6.66484 128.925 6.52424 127.744C6.21961 125.185 7.58633 116.536 10.6244 101.798C13.8593 87.0359 16.2222 78.3684 17.713 75.7949L19.4849 75.584C24.1295 109.575 31.3683 160.329 41.2013 227.847C43.6478 246.725 49.0426 274.436 57.3858 310.982C69.7838 348.044 87.1069 365.25 109.355 362.602C125.893 360.634 140.951 351.254 154.527 334.463ZM186.178 253.123C186.858 258.832 185.526 276.163 182.183 305.114C177.832 342.372 165.211 372.228 144.322 394.682L152.776 337.367C159.601 330.964 165.553 320.571 170.63 306.19L169.857 299.692C167.42 279.216 161.162 264.386 151.083 255.203C146.503 260.341 143.013 266.247 140.613 272.922L137.399 273.604L136.563 271.607C136.929 259.583 139.198 245.935 143.37 230.662C148.373 212.296 154.27 200.612 161.063 195.61C175.112 211.31 183.483 230.481 186.178 253.123ZM199.062 426.804L197.044 450.106C196.096 460.602 186.032 474.18 166.849 490.839C150.755 504.935 136.383 515.032 123.73 521.13L123.189 519.098C122.439 512.798 126.715 496.714 136.016 470.848C140.807 467.482 148.174 463.111 158.116 457.734C159.818 456.933 173.467 446.623 199.062 426.804ZM522.696 289.745L514.313 347.65C506.029 355.226 495.47 362.972 482.634 370.889C467.577 380.269 456.012 385.439 447.94 386.4C426.283 388.977 413.497 373.826 409.584 340.946C408.998 336.024 408.827 329.555 409.071 321.539L406.709 321.82C405.527 321.961 403 325.057 399.128 331.109C395.429 336.94 388.674 352.321 378.862 377.25C355.717 436.113 332.097 473.368 308.001 489.015C293.905 498.081 281.363 504.266 270.375 507.57C262.096 510.153 248.211 512.605 228.719 514.924C220.844 515.862 209.626 516.398 195.066 516.534C177.703 516.604 167.404 515.633 164.169 513.622L164.844 511.744L168.698 508.89C198.427 505.351 222.281 499.417 240.259 491.088C258.236 482.758 278.082 468.316 299.797 447.76C323.142 425.813 339.205 406.43 347.986 389.61C358.946 365.942 369.895 342.176 380.832 318.311C397.212 284.813 410.622 264.947 421.062 258.712L424.331 261.019L425.274 263.902C424.917 265.941 424.523 270.181 424.092 276.622C423.318 286.897 423.552 297.252 424.794 307.687C427.302 328.754 437.317 338.245 454.84 336.159C472.756 334.027 495.375 318.555 522.696 289.745ZM611.92 279.425L603.537 337.331C588.428 351.309 572.9 359.247 556.952 361.145C540.02 363.161 526.761 357.45 517.174 344.015L509.939 351.166L518.202 294.773C527.381 281.301 536.734 267.608 546.26 253.695C547.202 256.578 547.896 259.89 548.341 263.631C550.051 278.003 544.482 296.637 531.632 319.532C535.237 321.299 541.076 321.702 549.148 320.741C558.598 319.617 570.065 314.458 583.547 305.266C595.524 296.852 604.982 288.238 611.92 279.425ZM574.256 385.742C571.785 408.6 567.34 424.104 560.923 432.256C558.147 435.781 545.472 445.876 522.895 462.54C517.584 466.567 509.483 472.323 498.593 479.809C497.67 473.729 502.06 456.933 511.765 429.421C515.051 426.833 522.111 422.399 532.944 416.118C538.743 412.832 552.514 402.707 574.256 385.742ZM630.321 36.4278L620.744 59.1326C616.112 68.8689 611.719 75.5816 607.566 79.2707C599.128 75.4828 589.751 70.5089 579.433 64.3489C580.01 62.4832 587.217 47.5483 601.056 19.5441C619.746 23.9089 629.501 29.5368 630.321 36.4278ZM669.892 170.093C670.852 178.165 668.883 195.172 663.984 221.114C654.691 270.541 633.663 310.283 600.9 340.34L609.353 283.026C618.448 275.554 627.214 265.325 635.652 252.34C645.628 237.176 650.054 224.868 648.929 215.418C648.296 210.102 646.016 206.879 642.088 205.749C630.185 218.148 620.001 224.851 611.535 225.859C605.431 226.585 600.003 225.434 595.25 222.406C589.859 219.054 586.812 214.425 586.109 208.518C584.797 197.492 588.116 180.924 596.067 158.812C604.618 135.031 613.521 122.59 622.774 121.489C633.603 120.2 644.012 125.451 654.001 137.241C663.236 147.723 668.532 158.673 669.892 170.093Z" fill="black"/>
</svg>
