<svg width="216" height="15" viewBox="0 0 216 15" fill="none" xmlns="http://www.w3.org/2000/svg">
<path fill-rule="evenodd" clip-rule="evenodd" d="M10.0153 3.95814C5.14413 4.36224 2.24217 4.72592 1.77579 5.13002C0.635734 6.01903 2.91584 6.46354 10.1189 6.50395C10.1707 6.50395 197.191 3.19035 197.243 3.19035C205.69 2.90749 206.364 2.5438 206.364 1.85684C206.364 0.967829 204.084 0.361687 199.212 0.0788199C192.787 -0.365686 46.0306 1.08906 10.0153 3.95814ZM200.404 5.97863C198.124 6.05944 49.7099 8.72648 45.9788 8.96893C0.272984 11.5956 -3.25081 11.9997 1.67215 13.9393C4.0559 14.8687 8.56429 14.8687 28.1007 13.8181C75.2057 11.3531 209.317 11.0702 214.033 9.73671C216.21 9.09016 216.521 5.53412 200.404 5.97863Z" fill="#FF484B"/>
</svg>
