<svg width="119" height="21" viewBox="0 0 119 21" fill="none" xmlns="http://www.w3.org/2000/svg">
<path d="M0.193374 14.3091C0.193374 14.016 0.266652 13.8014 0.413206 13.6653C0.559761 13.5188 0.742954 13.4455 0.962786 13.4455C1.21402 13.4455 1.40768 13.5188 1.54377 13.6653C1.69033 13.8014 1.7636 14.016 1.7636 14.3091C1.7636 14.6127 1.69033 14.8377 1.54377 14.9843C1.40768 15.1204 1.21402 15.1884 0.962786 15.1884C0.742954 15.1884 0.559761 15.1204 0.413206 14.9843C0.266652 14.8377 0.193374 14.6127 0.193374 14.3091ZM5.71984 14.0579C5.77219 14.0579 5.79836 14.0788 5.79836 14.1207V14.9215C5.79836 14.9738 5.77219 15 5.71984 15H2.87773C2.82539 15 2.79922 14.9738 2.79922 14.9215V14.1207C2.79922 14.0788 2.82539 14.0579 2.87773 14.0579H5.71984ZM8.16781 14.0579C7.79095 13.838 7.49261 13.5188 7.27278 13.1C7.05294 12.6708 6.94303 12.1893 6.94303 11.6554C6.94303 11.0378 7.06865 10.5039 7.31988 10.0538C7.58159 9.60365 7.93751 9.25296 8.38764 9.00172C8.84824 8.74002 9.36642 8.60917 9.94217 8.60917C10.5807 8.60917 11.1094 8.73479 11.5281 8.98602C11.9573 9.23726 12.2818 9.60888 12.5016 10.1009C12.7215 10.5929 12.8314 11.2157 12.8314 11.9695V14.0579H14.8413V10.9174C14.8413 9.43092 14.5115 8.34223 13.852 7.65133C13.203 6.96043 12.1824 6.61498 10.7901 6.61498C10.3714 6.61498 9.93693 6.65162 9.4868 6.72489C9.04714 6.7877 8.61271 6.88192 8.18351 7.00753L7.88517 6.0811C8.16781 5.98688 8.46615 5.91361 8.7802 5.86127C9.09424 5.79846 9.41876 5.75135 9.75374 5.71995C10.0887 5.67807 10.4342 5.65714 10.7901 5.65714C12.4545 5.65714 13.7107 6.10203 14.5586 6.99183C15.417 7.88163 15.8462 9.15351 15.8462 10.8075V15H5.56123C5.50889 15 5.48272 14.9738 5.48272 14.9215V14.1207C5.48272 14.0788 5.50889 14.0579 5.56123 14.0579H8.16781ZM10.2405 14.0579H11.8264V12.1893C11.8264 11.2995 11.6642 10.6557 11.3397 10.2579C11.0152 9.86012 10.5232 9.66122 9.86365 9.66122C9.27744 9.66122 8.82207 9.83918 8.49756 10.1951C8.17304 10.551 8.01078 11.0535 8.01078 11.7025C8.01078 12.1631 8.105 12.5714 8.29343 12.9273C8.48185 13.2832 8.74356 13.5606 9.07854 13.7595C9.41352 13.9584 9.80085 14.0579 10.2405 14.0579ZM26.5411 4.41666H27.5931V15H26.5411V4.41666ZM36.2496 15.157C35.9775 15.157 35.7105 15.1361 35.4488 15.0942C35.1976 15.0628 34.962 15.0157 34.7422 14.9529C34.2921 14.8063 33.9519 14.6127 33.7216 14.3719C33.4913 14.1207 33.3761 13.8433 33.3761 13.5397C33.3761 13.2989 33.4913 12.9796 33.7216 12.5818C33.9623 12.1736 34.2973 11.7392 34.7265 11.2786C35.1557 10.818 35.6634 10.3835 36.2496 9.97527L35.4331 9.31577C35.0981 9.03313 34.8155 8.79236 34.5852 8.59347C34.3654 8.3841 34.1926 8.21138 34.067 8.07529C33.9414 7.92873 33.8472 7.80312 33.7844 7.69843C33.732 7.59375 33.7059 7.51001 33.7059 7.4472C33.7059 7.31111 33.7425 7.15932 33.8158 6.99183C33.8995 6.82434 34.0251 6.64115 34.1926 6.44225C34.4125 6.17008 34.6951 5.90314 35.0406 5.64143C35.386 5.36926 35.7681 5.11802 36.1868 4.88772C36.616 4.64696 37.0452 4.44806 37.4744 4.29104L37.7728 5.21747C37.5948 5.28028 37.3959 5.36403 37.1761 5.46871C36.9667 5.57339 36.7521 5.69378 36.5323 5.82986C36.281 5.97642 36.0193 6.14914 35.7472 6.34804C35.475 6.53646 35.2395 6.71966 35.0406 6.89762C34.8521 7.07558 34.7579 7.21166 34.7579 7.30588C34.7579 7.36869 34.805 7.45767 34.8992 7.57282C34.9935 7.68797 35.1452 7.83976 35.3546 8.02818C35.564 8.21661 35.8414 8.46261 36.1868 8.76619C36.5427 9.0593 36.9824 9.41522 37.5058 9.83395C36.9301 10.3574 36.4433 10.818 36.0455 11.2157C35.6477 11.6135 35.3598 11.9276 35.1819 12.1579C34.983 12.3987 34.8207 12.6342 34.6951 12.8645C34.5695 13.0948 34.5067 13.2885 34.5067 13.4455C34.5067 13.5816 34.5747 13.7124 34.7108 13.838C34.8574 13.9636 35.0667 14.0631 35.3389 14.1364C35.6215 14.2097 35.9565 14.2463 36.3438 14.2463C36.8673 14.2463 37.3122 14.2201 37.6785 14.1678C38.0554 14.105 38.3956 14.0212 38.6992 13.9165V14.8273C38.3851 14.932 38.024 15.0105 37.6157 15.0628C37.2075 15.1256 36.7521 15.157 36.2496 15.157ZM45.2202 15.157C44.948 15.157 44.6811 15.1361 44.4194 15.0942C44.1681 15.0628 43.9326 15.0157 43.7128 14.9529C43.2626 14.8063 42.9224 14.6127 42.6921 14.3719C42.4618 14.1207 42.3467 13.8433 42.3467 13.5397C42.3467 13.2989 42.4618 12.9796 42.6921 12.5818C42.9329 12.1736 43.2679 11.7392 43.6971 11.2786C44.1263 10.818 44.634 10.3835 45.2202 9.97527L44.4037 9.31577C44.0687 9.03313 43.786 8.79236 43.5557 8.59347C43.3359 8.3841 43.1632 8.21138 43.0376 8.07529C42.9119 7.92873 42.8177 7.80312 42.7549 7.69843C42.7026 7.59375 42.6764 7.51001 42.6764 7.4472C42.6764 7.31111 42.713 7.15932 42.7863 6.99183C42.8701 6.82434 42.9957 6.64115 43.1632 6.44225C43.383 6.17008 43.6657 5.90314 44.0111 5.64143C44.3566 5.36926 44.7386 5.11802 45.1574 4.88772C45.5866 4.64696 46.0158 4.44806 46.445 4.29104L46.7433 5.21747C46.5653 5.28028 46.3664 5.36403 46.1466 5.46871C45.9373 5.57339 45.7227 5.69378 45.5028 5.82986C45.2516 5.97642 44.9899 6.14914 44.7177 6.34804C44.4455 6.53646 44.21 6.71966 44.0111 6.89762C43.8227 7.07558 43.7285 7.21166 43.7285 7.30588C43.7285 7.36869 43.7756 7.45767 43.8698 7.57282C43.964 7.68797 44.1158 7.83976 44.3252 8.02818C44.5345 8.21661 44.8119 8.46261 45.1574 8.76619C45.5133 9.0593 45.953 9.41522 46.4764 9.83395C45.9006 10.3574 45.4138 10.818 45.0161 11.2157C44.6183 11.6135 44.3304 11.9276 44.1524 12.1579C43.9535 12.3987 43.7913 12.6342 43.6657 12.8645C43.54 13.0948 43.4772 13.2885 43.4772 13.4455C43.4772 13.5816 43.5453 13.7124 43.6814 13.838C43.8279 13.9636 44.0373 14.0631 44.3094 14.1364C44.5921 14.2097 44.9271 14.2463 45.3144 14.2463C45.8378 14.2463 46.2827 14.2201 46.6491 14.1678C47.0259 14.105 47.3662 14.0212 47.6697 13.9165V14.8273C47.3557 14.932 46.9945 15.0105 46.5863 15.0628C46.178 15.1256 45.7227 15.157 45.2202 15.157ZM53.2015 15L50.2809 4.41666H51.38L53.4213 12.1108C53.4946 12.3411 53.5574 12.5661 53.6097 12.786C53.6621 13.0058 53.7144 13.2152 53.7668 13.4141C53.8191 13.613 53.861 13.8119 53.8924 14.0108H54.0494C54.0913 13.8014 54.1332 13.6025 54.175 13.4141C54.2274 13.2152 54.2797 13.0058 54.332 12.786C54.3844 12.5661 54.442 12.3411 54.5048 12.1108L56.5618 4.41666H57.6766L54.7246 15H53.2015ZM64.8233 16.0206C64.8233 15.6019 64.8808 15.246 64.996 14.9529C65.1216 14.6598 65.3205 14.44 65.5927 14.2934C65.8753 14.1364 66.2417 14.0579 66.6918 14.0579H66.8332C66.6238 13.503 66.4668 12.9744 66.3621 12.4719C66.2574 11.9695 66.2051 11.4827 66.2051 11.0116C66.2051 10.6243 66.2417 10.237 66.315 9.84965C66.3987 9.46233 66.5243 9.09594 66.6918 8.75049C67.0478 8.41551 67.4612 8.14857 67.9323 7.94967C68.4139 7.75078 68.932 7.65133 69.4868 7.65133C69.8009 7.65133 70.094 7.68797 70.3662 7.76124C70.6488 7.82405 70.9053 7.9235 71.1356 8.05959C71.5962 8.3527 71.9521 8.76096 72.2033 9.28437C72.4546 9.80778 72.5802 10.394 72.5802 11.043C72.5802 11.4618 72.5436 11.8491 72.4703 12.205C72.4075 12.5504 72.308 12.875 72.1719 13.1785C71.8998 13.7648 71.5124 14.2149 71.01 14.5289C70.518 14.843 69.9317 15 69.2513 15H66.9902C66.5714 15 66.2731 15.089 66.0951 15.2669C65.9172 15.4554 65.8282 15.7485 65.8282 16.1463V20.0247H64.8233V16.0206ZM67.2728 10.8075C67.2728 11.3204 67.3199 11.8438 67.4141 12.3777C67.5084 12.9011 67.6758 13.4612 67.9166 14.0579H69.2827C69.7642 14.0579 70.1673 13.9427 70.4918 13.7124C70.8268 13.4716 71.078 13.1262 71.2455 12.6761C71.4235 12.2259 71.5124 11.6711 71.5124 11.0116C71.5124 10.2893 71.324 9.70309 70.9472 9.25296C70.5703 8.80283 70.0888 8.57776 69.5025 8.57776C69.1257 8.57776 68.7698 8.64057 68.4348 8.76619C68.1103 8.89181 67.7962 9.08024 67.4927 9.33147C67.4089 9.50943 67.3513 9.72926 67.3199 9.99097C67.2885 10.2527 67.2728 10.5248 67.2728 10.8075ZM74.8893 2.02991L78.4066 0.726617V1.40182L74.8893 2.72081V2.02991ZM75.4846 6.32825C75.0973 6.32825 74.799 6.20787 74.5896 5.9671C74.3907 5.71586 74.2913 5.34424 74.2913 4.85224V3.86299H74.9507V4.74232C74.9507 5.09824 75.0031 5.34424 75.1078 5.48033C75.2125 5.61641 75.3747 5.68446 75.5945 5.68446C75.8458 5.68446 76.029 5.61118 76.1441 5.46462C76.2593 5.31807 76.3168 5.11917 76.3168 4.86794V3.48614H76.9292V4.56959C76.9292 4.88364 76.9816 5.09824 77.0863 5.21339C77.2014 5.31807 77.3584 5.37041 77.5573 5.37041C77.84 5.37041 78.0284 5.2919 78.1226 5.13488C78.2273 4.97785 78.2796 4.74232 78.2796 4.42827V3.2506H78.9391V4.52249C78.9391 5.01449 78.8344 5.38611 78.6251 5.63735C78.4157 5.88859 78.1017 6.01421 77.6829 6.01421C77.4736 6.01421 77.2747 5.97757 77.0863 5.90429C76.9083 5.83101 76.767 5.70539 76.6623 5.52743C76.5576 5.79961 76.4058 6.00374 76.2069 6.13982C76.008 6.26544 75.7673 6.32825 75.4846 6.32825ZM77.086 15V15.5339C77.086 16.2143 76.9866 16.7953 76.7877 17.2768C76.5992 17.7688 76.3166 18.1405 75.9398 18.3917C75.5629 18.6429 75.0918 18.7685 74.5265 18.7685C74.2753 18.7685 74.0293 18.7319 73.7885 18.6586C73.5478 18.5958 73.3018 18.5016 73.0505 18.376L73.396 17.5595C73.5949 17.6537 73.7781 17.7217 73.9456 17.7636C74.1235 17.8055 74.3119 17.8264 74.5108 17.8264C75.0238 17.8264 75.4111 17.6275 75.6728 17.2297C75.945 16.8319 76.0811 16.2928 76.0811 15.6124V7.4315H77.086V14.0579H78.986C79.0383 14.0579 79.0645 14.0788 79.0645 14.1207V14.9215C79.0645 14.9738 79.0383 15 78.986 15H77.086ZM80.3636 6.02991L83.8809 4.72662V5.40182L80.3636 6.72081V6.02991ZM78.8284 15C78.776 15 78.7498 14.9738 78.7498 14.9215V14.1207C78.7498 14.0788 78.776 14.0579 78.8284 14.0579H85.6746C85.528 13.8799 85.3919 13.6496 85.2663 13.367C85.1511 13.0843 85.0412 12.7441 84.9365 12.3463C84.8423 11.9381 84.7481 11.4618 84.6539 10.9174C84.5806 10.4673 84.4916 10.0747 84.387 9.73973C84.2823 9.39428 84.1514 9.11164 83.9944 8.89181C83.8479 8.66151 83.6542 8.48878 83.4134 8.37363C83.1727 8.25848 82.8848 8.20091 82.5498 8.20091C82.1939 8.20091 81.8327 8.25848 81.4663 8.37363C81.1104 8.47831 80.7231 8.64057 80.3044 8.8604L79.8647 8.04389C80.3044 7.76124 80.7388 7.56235 81.168 7.4472C81.6077 7.32158 82.0735 7.25877 82.5655 7.25877C82.9005 7.25877 83.1988 7.29541 83.4605 7.36869C83.7327 7.4315 83.9735 7.53618 84.1828 7.68273C84.4445 7.85022 84.6644 8.05959 84.8423 8.31082C85.0203 8.56206 85.1668 8.87611 85.282 9.25296C85.4076 9.62982 85.5175 10.1061 85.6117 10.6819C85.7164 11.3204 85.8211 11.8595 85.9258 12.2992C86.0409 12.7284 86.1666 13.0896 86.3026 13.3827C86.4387 13.6653 86.5958 13.8904 86.7737 14.0579H87.8258C87.8781 14.0579 87.9043 14.0788 87.9043 14.1207V14.9215C87.9043 14.9738 87.8781 15 87.8258 15H78.8284ZM91.3936 5.72081C91.1005 5.72081 90.8283 5.67894 90.5771 5.59519C90.3363 5.50098 90.106 5.37536 89.8862 5.21834L90.2631 4.70016C90.4515 4.83625 90.6347 4.93569 90.8126 4.9985C91.0011 5.06131 91.1895 5.09272 91.3779 5.09272C91.5245 5.09272 91.6658 5.08225 91.8019 5.06131C91.938 5.04038 92.0636 5.00374 92.1787 4.9514C91.7705 4.5222 91.5664 4.05637 91.5664 3.55389C91.5664 3.16657 91.692 2.85776 91.9432 2.62746C92.1944 2.39716 92.5242 2.28201 92.9325 2.28201C93.3407 2.28201 93.6548 2.40239 93.8746 2.64316C94.1049 2.88393 94.22 3.1718 94.22 3.50679C94.22 3.69521 94.1886 3.87841 94.1258 4.05636C94.0735 4.23432 93.974 4.41228 93.8275 4.59024C93.5344 4.94616 93.168 5.22357 92.7283 5.42246C92.2991 5.62136 91.8542 5.72081 91.3936 5.72081ZM92.7283 4.73156C93.011 4.58501 93.2203 4.40705 93.3564 4.19769C93.4925 3.98832 93.5605 3.77896 93.5605 3.56959C93.5605 3.38117 93.503 3.22414 93.3878 3.09853C93.2727 2.96244 93.1104 2.8944 92.901 2.8944C92.7126 2.8944 92.5504 2.9572 92.4143 3.08282C92.2887 3.20844 92.2258 3.39164 92.2258 3.6324C92.2258 3.82083 92.2677 4.00402 92.3515 4.18198C92.4352 4.35994 92.5608 4.54314 92.7283 4.73156ZM87.6762 15C87.6239 15 87.5977 14.9738 87.5977 14.9215V14.1207C87.5977 14.0788 87.6239 14.0579 87.6762 14.0579H89.6861C89.4663 13.4821 89.304 12.9482 89.1994 12.4562C89.0947 11.9538 89.0423 11.4722 89.0423 11.0116C89.0423 10.6243 89.079 10.237 89.1522 9.84965C89.236 9.46233 89.3616 9.09594 89.5291 8.75049C89.8955 8.41551 90.3142 8.14857 90.7853 7.94967C91.2564 7.75078 91.7693 7.65133 92.3241 7.65133C92.6382 7.65133 92.9365 7.68797 93.2191 7.76124C93.5018 7.82405 93.753 7.9235 93.9729 8.05959C94.4439 8.34223 94.7998 8.75049 95.0406 9.28437C95.2918 9.80778 95.4175 10.394 95.4175 11.043C95.4175 11.4618 95.3808 11.8491 95.3075 12.205C95.2447 12.5504 95.1453 12.875 95.0092 13.1785C94.737 13.7648 94.3497 14.2149 93.8472 14.5289C93.3552 14.843 92.769 15 92.0886 15H87.6762ZM90.1101 10.8075C90.1101 11.3204 90.1572 11.8438 90.2514 12.3777C90.3561 12.9011 90.5288 13.4612 90.7696 14.0579H92.12C92.6015 14.0579 93.0045 13.9427 93.3291 13.7124C93.664 13.4716 93.9153 13.1262 94.0828 12.6761C94.2607 12.2259 94.3497 11.6711 94.3497 11.0116C94.3497 10.2893 94.1613 9.70309 93.7844 9.25296C93.4076 8.80283 92.926 8.57776 92.3398 8.57776C91.963 8.57776 91.6018 8.64581 91.2564 8.78189C90.9214 8.90751 90.6126 9.0907 90.3299 9.33147C90.2566 9.50943 90.1991 9.72926 90.1572 9.99097C90.1258 10.2527 90.1101 10.5248 90.1101 10.8075ZM105.773 4.41666H106.825V15H105.773V4.41666ZM114.493 4.41666H116.016L118.968 15H117.853L115.796 7.30588C115.733 7.05464 115.675 6.82434 115.623 6.61498C115.571 6.39514 115.518 6.18578 115.466 5.98689C115.424 5.77752 115.382 5.58386 115.34 5.4059H115.183C115.152 5.58386 115.11 5.77752 115.058 5.98689C115.005 6.18578 114.953 6.40038 114.901 6.63068C114.848 6.85051 114.786 7.07558 114.712 7.30588L112.671 15H111.572L114.493 4.41666Z" fill="black"/>
</svg>
